<svg fill="none" height="24" viewBox="0 0 24 24" width="24" xmlns="http://www.w3.org/2000/svg"><path d="m10.9916 3.9756c.6868-.52759 1.5041-.95603 2.3754-.58752.8632.3651 1.1406 1.24459 1.2604 2.10977.1228.88674.1228 2.10772.1228 3.6258v5.75575c0 1.5181 0 2.7391-.1228 3.6258-.1198.8652-.3972 1.7447-1.2604 2.1098-.8713.3685-1.6886-.0599-2.3754-.5875-.7024-.5395-1.595-1.451-2.64493-2.5231h-.00004c-.53946-.5509-.89742-.8171-1.26-.967-.36442-.1506-.80749-.2145-1.58044-.2145-.66851 0-1.26656 0-1.7194-.0471-.47495-.0493-.91591-.1567-1.31258-.4273-.75581-.5157-1.04504-1.2708-1.15464-1.9647-.08172-.5175-.07234-1.0857-.06478-1.5433v-.6779c-.00756-.4576-.01694-1.0258.06478-1.5433.1096-.69394.39883-1.44901 1.15464-1.96468.39667-.27064.83763-.37805 1.31258-.42739.45284-.04704 1.05089-.04702 1.7194-.047.77295 0 1.21602-.06395 1.58044-.2146.36259-.14989.72054-.41609 1.26-.96694h.00001c1.04995-1.07214 1.94256-1.98358 2.64496-2.52309z" fill="#b288bd"/><g clip-rule="evenodd" fill="#65008d" fill-rule="evenodd"><path d="m16.3935 8.20503c.439-.335 1.0666-.25064 1.4016.18844.7568.99192 1.205 2.24833 1.205 3.60663 0 1.3582-.4482 2.6146-1.205 3.6065-.335.4391-.9626.5235-1.4016.1885-.4391-.335-.5235-.9626-.1885-1.4016.494-.6475.7951-1.4786.7951-2.3934 0-.9149-.3011-1.746-.7951-2.39346-.335-.43908-.2506-1.0666.1885-1.40161z"/><path d="m19.3247 6.26245c.4074-.37295 1.0399-.34507 1.4129.06227 1.4032 1.53258 2.2624 3.50775 2.2624 5.67528 0 2.1675-.8592 4.1427-2.2624 5.6753-.373.4073-1.0055.4352-1.4129.0623-.4073-.373-.4352-1.0055-.0622-1.4129 1.0984-1.1997 1.7375-2.7037 1.7375-4.3247s-.6391-3.12503-1.7375-4.3247c-.373-.40734-.3451-1.03989.0622-1.41285z"/></g></svg>