<?xml version="1.0" encoding="utf-8"?>
<!-- Generator: Adobe Illustrator 27.5.0, SVG Export Plug-In . SVG Version: 6.00 Build 0)  -->
<svg version="1.1" id="Capa_1" xmlns="http://www.w3.org/2000/svg" xmlns:xlink="http://www.w3.org/1999/xlink" x="0px" y="0px"
	 viewBox="0 0 1794 2510" style="enable-background:new 0 0 1794 2510;" xml:space="preserve">
<path style="fill:#F7B596;" d="M1475.23,536.964c0,0-23.843-63.838-76.913-90.372c-32.395-16.198-72.528-33.254-109.378-25.717
	c-1.98-13.87-4.89-30.486-9.168-49.531c-21.126-94.05-192.912-162.718-241.51-38.206c-1.613-24.829-5.992-53.479-16.351-77.994
	c-32.84-77.721-187.148-113.026-238.48-29.729c-1.645-6.372-3.585-12.332-5.864-17.727
	c-38.272-90.579-241.651-40.45-254.612,104.783c-1.03,11.532-1.793,24.258-2.26,37.767c-1.26,0.186-2.527,0.383-3.802,0.596
	c-92.296,15.383-96.91,118.446-170.747,243.045c-73.837,124.599-76.914,186.13-76.914,186.13
	c-22.747,82.456,14.976,128.144,156.827,241.454c0.009,0.001,0.017,0.005,0.026,0.005c-0.781-0.624-1.607-1.278-2.383-1.898
	c28.705,12.49,55.732,29.444,80.292,48.276c57.092,43.776,105.788,99.738,143.848,160.651c17.168,27.478,31.48,56.542,44.874,86.01
	c6.805,14.972,13.396,30.247,20.857,45.032l-0.002-0.08c5.103,10.117,10.594,20.017,16.854,29.423l0.091,0.136
	c0.435,0.653,0.873,1.302,1.315,1.95l0.647,0.934l0.856,1.235c0.52,0.738,1.043,1.472,1.572,2.203
	c16.019,22.115,37.22,39.106,63.539,47.185c35.075,10.768,74.776,8.131,110.723,4.142c81.995-9.098,166.723-35.265,248.894-13.593
	c6.083,1.604,12.063,3.533,17.975,5.655c-66.414-0.276-133.375-1.512-198.757,11.716c-0.689,0.139-1.377,0.281-2.066,0.424
	l-0.336,0.07c-22.958,4.778-46.128,11.56-67.298,22.064l-0.191,0.006c-8.58,4.266-16.824,9.156-24.582,14.793
	c-25.498,18.527-41.923,44.045-50.814,74.082c-10.191,34.428-12.071,71.127-11.945,106.827c0.13,36.617,3.012,73.124,5.227,109.652
	c2.628,43.348,1.591,86.812,1.712,130.22c0.155,55.63,0.599,111.264,1.907,166.881c2.131,90.559,6.661,181.132,15.833,271.262
	h635.081c-10.637-63.4-8.629-129.542-19.25-192.9c-8.858-52.842-14.085-105.847-16.802-159.348
	c-1.329-26.163-2.235-52.347-3.159-78.527c-0.798-22.594-2.468-45.273-1.824-67.881c1.942-68.102,12.9-138.255-3.611-205.421
	c-7.706-31.349-22.6-60.423-47.953-81.024c-25.213-20.488-56.18-31.393-87.716-37.735c-73.864-14.857-149.027-6.935-223.692-8.887
	c28.892-9.457,60.743-10.034,90.723-9.861c38.896,0.225,77.762,3.155,116.668,2.247c32.348-0.754,67.027-3.548,96.142-18.949
	c23.851-12.618,42.123-36.426,52.48-61.049c7.126-16.94,8.444-32.069,5.408-45.584l-0.095,0.09
	c-14.431-64.476-127.892-92.239-183.366-104.284l-1.176-0.254c-0.616-0.134-1.229-0.266-1.831-0.396
	c-42.781-9.212-86.44-13.517-129.251-22.221c33.018-36.984,86.985-39.315,133.409-42.56c48.254-3.373,98.938-6.952,137.872-38.742
	l0.022,0.021l0.844-0.689c44.945-37.342,66.694-93.461,77.841-149.344c6.246-31.314,9.219-62.971,12.247-94.717
	c3.725-39.064,7.729-78.1,11.824-117.126c5.795-55.252,11.725-110.49,17.359-165.759
	C1497.253,587.336,1475.23,536.964,1475.23,536.964z"/>
<path style="fill:#EE8468;" d="M466.675,1053.623c1.093,0.878,2.182,1.763,3.267,2.654c1.971,1.617,3.931,3.254,5.879,4.91
	c0.813,0.691,1.623,1.386,2.432,2.084c1.151,0.993,2.298,1.993,3.441,2.999c0.581,0.512,1.161,1.025,1.74,1.54
	c1.342,1.194,2.678,2.396,4.008,3.607c1.543,1.405,3.079,2.821,4.606,4.249c1.126,1.052,2.247,2.111,3.364,3.176
	c0.495,0.47,0.988,0.943,1.481,1.416c0.858,0.824,1.714,1.651,2.566,2.483c0.286,0.278,0.571,0.556,0.856,0.835
	c1.081,1.058,2.156,2.12,3.228,3.188c0.052,0.052,0.105,0.104,0.157,0.156c0.709,0.707,1.416,1.417,2.122,2.13
	c0.96,0.968,1.916,1.941,2.869,2.918c0.436,0.446,0.87,0.893,1.304,1.341c1.896,1.957,3.78,3.931,5.651,5.92
	c1.023,1.087,2.041,2.179,3.055,3.275c0.776,0.839,1.55,1.68,2.321,2.524c1.409,1.541,2.811,3.09,4.205,4.648
	c0.042,0.047,0.085,0.094,0.127,0.141c0.06,0.066,0.118,0.133,0.178,0.199c2.282,2.555,4.545,5.132,6.787,7.731
	c0.066,0.076,0.132,0.153,0.197,0.229c2.67,3.097,5.311,6.224,7.924,9.378c0.42,0.506,0.838,1.013,1.256,1.521
	c2.883,3.501,5.731,7.034,8.543,10.596c0.37,0.469,0.739,0.938,1.108,1.407c0.915,1.165,1.828,2.332,2.735,3.503
	c0.719,0.928,1.434,1.858,2.148,2.788c1.378,1.796,2.748,3.599,4.108,5.408c0.263,0.349,0.524,0.698,0.785,1.047
	c0.851,1.136,1.699,2.273,2.544,3.414c0.132,0.177,0.262,0.356,0.394,0.534c1.226,1.659,2.444,3.322,3.656,4.99
	c0.434,0.598,0.867,1.196,1.299,1.795c0.407,0.562,0.812,1.125,1.216,1.689c1.259,1.753,2.509,3.512,3.752,5.274
	c0.679,0.963,1.356,1.926,2.031,2.891c0.209,0.299,0.417,0.598,0.625,0.897c0.797,1.144,1.591,2.29,2.382,3.437
	c0.126,0.183,0.251,0.366,0.377,0.549c3.742,5.443,7.411,10.92,11.004,16.419c0.435,0.666,0.869,1.332,1.302,1.999
	c1.525,2.349,3.038,4.7,4.535,7.055c0.147,0.231,0.293,0.461,0.439,0.692c1.088,1.713,2.167,3.427,3.241,5.143
	c0.356,0.569,0.711,1.138,1.065,1.708c3.071,4.933,6.084,9.876,9.036,14.82c0.045,0.076,0.09,0.152,0.136,0.228
	c5.12,8.578,10.061,17.16,14.825,25.703c0.28,0.503,0.559,1.005,0.839,1.508c4.726,8.507,9.275,16.973,13.648,25.357
	c0.017,0.032,0.033,0.064,0.05,0.097c10.926,20.958,20.75,41.403,29.471,60.693c0.002,0.005,0.004,0.009,0.006,0.013
	c34.623,76.584,51.885,134.972,51.893,135c0.107,1.729,0.215,3.49,0.325,5.279c0.034,0.555,0.068,1.114,0.103,1.676
	c0.113,1.856,0.227,3.745,0.341,5.666c0.006,0.1,0.013,0.201,0.018,0.302c0.173,2.896,0.348,5.865,0.525,8.909
	c0.003,0.051,0.006,0.101,0.009,0.152c0.078,1.345,0.157,2.705,0.236,4.079c0.076,1.32,0.153,2.653,0.229,3.999
	c0.164,2.873,0.329,5.807,0.496,8.801c0.019,0.348,0.038,0.697,0.058,1.047c0.164,2.95,0.329,5.96,0.495,9.029
	c0.021,0.393,0.042,0.786,0.064,1.181c0.127,2.349,0.255,4.729,0.382,7.146c0.092,1.726,0.184,3.47,0.276,5.23
	c0.006,0.126,0.013,0.252,0.019,0.378c0.007,0.139,0.015,0.28,0.022,0.42c0.042,0.822,0.086,1.647,0.129,2.475
	c0.006,0.113,0.012,0.225,0.018,0.337c0.094,1.815,0.188,3.648,0.283,5.5c0.004,0.068,0.007,0.136,0.011,0.204
	c0.038,0.754,0.077,1.511,0.116,2.271c0.01,0.204,0.021,0.408,0.031,0.612c0.014,0.279,0.028,0.559,0.042,0.84
	c0.107,2.121,0.215,4.266,0.323,6.434c0.046,0.909,0.091,1.82,0.136,2.737c0.038,0.775,0.077,1.551,0.116,2.332
	c0.037,0.737,0.073,1.476,0.109,2.219c0.117,2.388,0.235,4.804,0.352,7.246c0.031,0.637,0.062,1.276,0.093,1.917
	c0.119,2.468,0.238,4.965,0.356,7.488c0.031,0.656,0.063,1.314,0.093,1.974c0.022,0.476,0.044,0.952,0.067,1.431
	c0.011,0.24,0.022,0.481,0.034,0.721c0.051,1.095,0.102,2.196,0.153,3.302c0.018,0.391,0.037,0.781,0.055,1.174
	c0.028,0.605,0.055,1.212,0.084,1.82c0.003,0.05,0.004,0.1,0.007,0.149c0.165,3.58,0.33,7.214,0.496,10.9
	c0.018,0.397,0.035,0.792,0.053,1.19c0.133,2.958,0.266,5.95,0.398,8.976c0.009,0.223,0.019,0.446,0.029,0.669
	c0.245,5.609,0.492,11.335,0.739,17.179c0.007,0.173,0.014,0.346,0.022,0.519c0.058,1.378,0.116,2.763,0.174,4.154
	c0.011,0.274,0.023,0.548,0.034,0.823c0.019,0.451,0.037,0.903,0.056,1.355c0.018,0.445,0.037,0.887,0.055,1.333
	c0.07,1.679,0.139,3.366,0.208,5.064c0.03,0.734,0.06,1.469,0.09,2.206c0.366,8.985,0.732,18.232,1.096,27.744
	c0.004,0.084,0.007,0.168,0.01,0.252c0.029,0.748,0.057,1.499,0.086,2.25c0.011,0.289,0.022,0.577,0.033,0.866
	c0.091,2.396,0.183,4.811,0.273,7.24c0.023,0.605,0.045,1.211,0.068,1.818c0.057,1.538,0.115,3.083,0.172,4.634
	c0.005,0.126,0.009,0.251,0.014,0.377c0.128,3.445,0.254,6.924,0.381,10.434c0.023,0.64,0.046,1.279,0.069,1.921
	c0.165,4.589,0.329,9.234,0.493,13.935c0.018,0.512,0.035,1.024,0.053,1.537c0.164,4.713,0.326,9.481,0.489,14.307
	c0.003,0.087,0.006,0.173,0.009,0.26c0.244,7.263,0.487,14.652,0.727,22.172c0.001,0.035,0.002,0.07,0.004,0.106
	c0.03,0.927,0.06,1.857,0.089,2.789c0.015,0.489,0.031,0.981,0.047,1.471c0.045,1.433,0.091,2.871,0.136,4.313
	c0.015,0.477,0.029,0.954,0.044,1.432c0.131,4.19,0.262,8.418,0.392,12.685c0.007,0.217,0.012,0.432,0.02,0.649
	c0.087,2.889,0.175,5.798,0.262,8.723c0.019,0.649,0.038,1.298,0.058,1.95c0.091,3.091,0.184,6.201,0.274,9.332
	c0.002,0.065,0.003,0.13,0.006,0.196c0.081,2.792,0.161,5.603,0.242,8.428c0.026,0.897,0.051,1.796,0.076,2.695
	c0.007,0.251,0.015,0.503,0.022,0.754c0.031,1.079,0.06,2.161,0.091,3.245c0.075,2.673,0.15,5.36,0.224,8.062
	c0.022,0.809,0.044,1.619,0.067,2.431c0.02,0.742,0.041,1.484,0.061,2.229c0.006,0.225,0.012,0.451,0.018,0.676
	c0.051,1.867,0.102,3.742,0.152,5.622c0.015,0.582,0.031,1.164,0.047,1.747c0.122,4.54,0.242,9.119,0.362,13.736
	c0.006,0.227,0.011,0.452,0.017,0.679c0.027,1.06,0.055,2.123,0.082,3.188c0.034,1.304,0.067,2.611,0.1,3.922
	c0.071,2.789,0.142,5.595,0.212,8.413c0.061,2.473,0.123,4.956,0.184,7.45c0.015,0.62,0.03,1.241,0.046,1.863
	c0.016,0.682,0.033,1.366,0.049,2.05c0.14,5.782,0.279,11.619,0.416,17.516c0.006,0.241,0.012,0.482,0.017,0.723
	c0.448,19.321,0.88,39.26,1.29,59.827c0.003,0.121,0.005,0.243,0.008,0.364c0.107,5.385,0.213,10.813,0.317,16.285
	c0.032,1.684,0.064,3.374,0.096,5.066c0.002,0.13,0.005,0.26,0.007,0.39c0.027,1.448,0.054,2.9,0.081,4.354
	c0.097,5.23,0.193,10.497,0.288,15.804c0,0.024,0.001,0.048,0.001,0.071c0.114,6.384,0.226,12.826,0.335,19.322
	c0.044,2.576,0.087,5.16,0.129,7.754c0.058,3.498,0.115,7.013,0.171,10.543c0.013,0.803,0.025,1.606,0.038,2.411
	c0.089,5.606,0.176,11.252,0.262,16.94c0.004,0.294,0.009,0.588,0.013,0.883c0.041,2.668,0.08,5.344,0.12,8.03
	c0.003,0.191,0.005,0.382,0.008,0.574c0.019,1.271,0.037,2.546,0.056,3.822c0.006,0.396,0.011,0.792,0.017,1.188
	c0.053,3.7,0.106,7.42,0.158,11.154c0.018,1.286,0.036,2.574,0.054,3.864c0.006,0.487,0.013,0.973,0.019,1.461
	c0.018,1.344,0.037,2.69,0.055,4.039c0.05,3.699,0.099,7.413,0.148,11.146c0.004,0.352,0.009,0.705,0.014,1.056
	c0.053,4.103,0.105,8.226,0.156,12.369c0.01,0.822,0.021,1.644,0.031,2.467c0.127,10.323,0.248,20.769,0.364,31.34
	c0.012,1.062,0.023,2.125,0.034,3.189c0.009,0.808,0.018,1.616,0.026,2.427c0.018,1.744,0.037,3.49,0.055,5.24
	c0.032,3.067,0.064,6.145,0.094,9.232c0.02,1.966,0.04,3.936,0.059,5.91c0.001,0.052,0.001,0.105,0.002,0.159
	c0.02,1.961,0.039,3.928,0.057,5.898c0.01,0.961,0.018,1.923,0.028,2.887c0.005,0.516,0.009,1.032,0.014,1.548
	c0.023,2.402,0.046,4.809,0.067,7.223c0.007,0.794,0.014,1.589,0.021,2.384c0.012,1.278,0.024,2.557,0.035,3.838
	c0.005,0.548,0.009,1.096,0.014,1.644c0.041,4.566,0.08,9.152,0.117,13.762c0.003,0.367,0.006,0.734,0.009,1.102
	c0.01,1.25,0.02,2.503,0.031,3.756c0.016,1.998,0.032,4,0.048,6.006c0.012,1.581,0.024,3.165,0.036,4.751
	c0.001,0.089,0.002,0.178,0.002,0.267c0.013,1.615,0.024,3.233,0.037,4.854c0.004,0.464,0.007,0.929,0.01,1.393
	c0.033,4.432,0.065,8.883,0.095,13.354c0.007,0.957,0.013,1.915,0.019,2.874c0.014,2.093,0.028,4.191,0.042,6.293
	c0.007,1.046,0.014,2.092,0.021,3.141c0.006,0.895,0.011,1.792,0.017,2.688c0.008,1.393,0.018,2.789,0.026,4.186
	c0.004,0.697,0.008,1.393,0.012,2.09c0.005,0.908,0.011,1.816,0.017,2.724c0.015,2.491,0.029,4.988,0.043,7.491
	c0.006,1.063,0.012,2.128,0.018,3.193c0.003,0.587,0.007,1.173,0.01,1.76c0.026,4.837,0.052,9.698,0.077,14.58
	c0.001,0.116,0.001,0.231,0.001,0.346c0.023,4.683,0.045,9.384,0.066,14.107c0.004,0.859,0.008,1.721,0.011,2.582
	c0.009,2.092,0.018,4.189,0.026,6.29c0.001,0.105,0.001,0.21,0.001,0.315c0.01,2.529,0.021,5.063,0.03,7.604
	c0.001,0.301,0.002,0.603,0.003,0.904c0.006,1.639,0.012,3.279,0.018,4.923c0.004,1.094,0.008,2.189,0.011,3.286
	c0.008,2.265,0.016,4.533,0.023,6.807h101.865c-9.171-90.13-13.702-180.703-15.833-271.262
	c-1.308-55.617-1.753-111.25-1.907-166.881c-0.12-43.408,0.916-86.871-1.712-130.22c-2.215-36.529-5.096-73.035-5.227-109.652
	c-0.126-35.7,1.754-72.399,11.945-106.827c8.891-30.038,25.316-55.555,50.814-74.082c7.757-5.636,16.001-10.527,24.582-14.793
	l0.191-0.006c21.171-10.504,44.34-17.286,67.298-22.064l0.336-0.07c0.689-0.143,1.378-0.284,2.066-0.424
	c65.382-13.227,132.343-11.991,198.757-11.716c-5.913-2.122-11.892-4.051-17.975-5.655c-82.171-21.673-166.9,4.495-248.894,13.593
	c-35.946,3.989-75.648,6.625-110.723-4.142c-26.318-8.079-47.52-25.07-63.539-47.185c-0.529-0.731-1.052-1.466-1.572-2.203
	l-0.856-1.235l-0.647-0.934c-0.443-0.647-0.88-1.297-1.315-1.95l-0.091-0.136c-6.26-9.406-11.751-19.306-16.854-29.423l0.002,0.08
	c-7.461-14.785-14.052-30.06-20.857-45.032c-13.394-29.469-27.706-58.532-44.874-86.01
	c-38.061-60.913-86.757-116.874-143.848-160.651c-24.56-18.833-51.588-35.786-80.292-48.276c11.347,9.079,23.3,18.548,36.011,28.547
	c1.108,0.872,2.22,1.746,3.34,2.626C464.265,1051.695,465.472,1052.656,466.675,1053.623z"/>
<path style="fill:#EE8468;" d="M1495.56,811.584c-4.095,39.027-8.098,78.063-11.824,117.126
	c-3.028,31.746-6.001,63.403-12.247,94.717c-11.147,55.883-32.896,112.003-77.841,149.344l-0.844,0.689l-0.022-0.021
	c-38.934,31.79-89.618,35.369-137.872,38.742c-46.424,3.245-100.391,5.576-133.409,42.56c42.811,8.704,86.47,13.009,129.251,22.221
	c0.602,0.13,1.214,0.262,1.831,0.396l1.176,0.254c55.475,12.045,168.935,39.808,183.366,104.284l0.095-0.09
	c3.036,13.515,1.718,28.645-5.408,45.584c-10.358,24.623-28.63,48.431-52.48,61.049c-29.114,15.402-63.794,18.195-96.142,18.949
	c-38.906,0.908-77.772-2.022-116.668-2.247c-29.98-0.174-61.831,0.404-90.723,9.861c74.665,1.953,149.829-5.969,223.692,8.887
	c31.536,6.342,62.503,17.248,87.716,37.735c25.353,20.602,40.247,49.675,47.953,81.024c16.511,67.166,5.553,137.32,3.611,205.421
	c-0.644,22.608,1.026,45.287,1.824,67.881c0.925,26.18,1.83,52.364,3.159,78.527c2.717,53.501,7.944,106.506,16.802,159.348
	c10.62,63.358,8.612,129.5,19.25,192.9h37.258c-1.16-10.787-2.394-22.358-3.69-34.632c-0.023-0.221-0.046-0.441-0.07-0.663
	c-0.422-3.998-0.851-8.069-1.285-12.214c-0.039-0.373-0.078-0.748-0.118-1.122c-0.31-2.961-0.624-5.958-0.941-8.99
	c-0.188-1.797-0.376-3.605-0.565-5.427c-0.024-0.234-0.048-0.469-0.073-0.703c-0.037-0.354-0.074-0.71-0.111-1.065
	c-0.086-0.829-0.172-1.659-0.259-2.492c-0.078-0.759-0.158-1.519-0.237-2.282c-0.005-0.051-0.011-0.103-0.016-0.154
	c-0.067-0.65-0.135-1.305-0.203-1.957c-0.414-3.994-0.832-8.042-1.254-12.144c-0.12-1.165-0.241-2.334-0.362-3.508
	c-0.159-1.55-0.319-3.106-0.479-4.67c-0.014-0.14-0.029-0.28-0.043-0.42c-0.208-2.026-0.417-4.067-0.626-6.117
	c-0.216-2.118-0.434-4.248-0.652-6.391c-0.174-1.707-0.349-3.419-0.523-5.141c-0.082-0.806-0.164-1.616-0.246-2.425
	c-0.042-0.419-0.085-0.837-0.127-1.257c-0.291-2.86-0.582-5.742-0.875-8.643c-0.186-1.844-0.373-3.695-0.56-5.555
	c-0.106-1.055-0.212-2.112-0.319-3.172c-0.007-0.072-0.014-0.144-0.022-0.215c-0.466-4.642-0.936-9.333-1.409-14.072
	c-0.052-0.528-0.106-1.057-0.158-1.586c-0.204-2.047-0.408-4.102-0.613-6.166c-0.021-0.208-0.042-0.417-0.063-0.626
	c-2.075-20.9-4.202-42.675-6.353-65.148c-0.024-0.256-0.049-0.513-0.073-0.77c-20.334-212.547-42.78-487.143-43.744-671.981
	c0-0.035-0.001-0.071-0.001-0.107c-0.096-18.565,0.025-36.223,0.386-52.822c0.001-0.058,0.003-0.117,0.004-0.175
	c0.021-0.948,0.042-1.891,0.065-2.832c0.003-0.125,0.006-0.249,0.009-0.373c0.023-0.948,0.047-1.893,0.071-2.834
	c0.002-0.048,0.002-0.096,0.004-0.144c0.026-0.991,0.053-1.977,0.08-2.96c0.001-0.017,0.001-0.034,0.001-0.051
	c0.028-1.003,0.057-2.002,0.087-2.996c0-0.001,0-0.002,0-0.003c0.303-10.046,0.703-19.662,1.206-28.81
	c0.001-0.016,0.002-0.034,0.003-0.051c0.098-1.774,0.2-3.531,0.305-5.269c0.003-0.052,0.006-0.104,0.009-0.156l0.004-0.017
	c1.509-8.069,2.97-16.003,4.386-23.812c0.354-1.953,0.705-3.896,1.053-5.833c0.174-0.969,0.348-1.935,0.521-2.9
	c2.074-11.575,4.05-22.875,5.94-33.937c0.157-0.922,0.314-1.842,0.471-2.76c0.781-4.593,1.548-9.144,2.301-13.658
	c0.301-1.805,0.6-3.604,0.897-5.397c0.297-1.793,0.591-3.58,0.883-5.361c0.438-2.672,0.873-5.33,1.302-7.977
	c0.43-2.646,0.854-5.28,1.275-7.901c0.28-1.747,0.559-3.49,0.835-5.226c0.829-5.212,1.64-10.375,2.438-15.496
	c0.132-0.854,0.265-1.706,0.397-2.557c0.264-1.703,0.526-3.4,0.786-5.093c0.26-1.693,0.519-3.382,0.776-5.067
	c0.257-1.685,0.513-3.365,0.766-5.041c0.254-1.676,0.507-3.348,0.758-5.015c0.251-1.668,0.5-3.331,0.749-4.991
	c0.372-2.49,0.741-4.971,1.106-7.444c0.244-1.648,0.486-3.293,0.728-4.935c0.604-4.104,1.198-8.185,1.786-12.248
	c0.118-0.812,0.235-1.624,0.352-2.435c0.351-2.433,0.7-4.859,1.045-7.279c0.115-0.807,0.231-1.613,0.345-2.418
	c0.574-4.027,1.142-8.036,1.705-12.032c0.338-2.397,0.673-4.79,1.006-7.178c0.556-3.979,1.107-7.946,1.654-11.903
	c0.875-6.331,1.74-12.635,2.596-18.923c0.107-0.786,0.215-1.571,0.322-2.357c1.39-10.211,2.763-20.384,4.133-30.56
	c2.108-15.656,4.211-31.322,6.362-47.156c2.24-16.488,4.394-31.633,6.441-45.683c0.293-2.007,0.583-3.991,0.871-5.955
	c0.144-0.981,0.287-1.958,0.431-2.929c0.428-2.913,0.852-5.778,1.27-8.598c0.139-0.94,0.279-1.875,0.417-2.805
	c0.415-2.789,0.824-5.535,1.228-8.238c0.404-2.703,0.802-5.364,1.195-7.986c0.131-0.874,0.261-1.743,0.391-2.608
	c0.259-1.73,0.516-3.443,0.769-5.14c0.889-5.937,1.745-11.672,2.568-17.237c0.235-1.59,0.467-3.165,0.696-4.728
	c0.229-1.563,0.456-3.112,0.679-4.649c0.111-0.768,0.222-1.534,0.333-2.296c0.441-3.048,0.869-6.049,1.285-9.007
	c0.937-6.654,1.811-13.092,2.617-19.379c0.179-1.397,0.355-2.787,0.528-4.17c0.517-4.149,1.004-8.238,1.458-12.286
	c0.151-1.349,0.299-2.695,0.443-4.036c0.793-7.376,1.476-14.637,2.039-21.905c0.103-1.321,0.201-2.643,0.296-3.965
	c0.094-1.323,0.185-2.647,0.271-3.971c0.043-0.663,0.085-1.325,0.126-1.989c0.165-2.654,0.313-5.315,0.444-7.992
	c0.066-1.338,0.128-2.68,0.185-4.026c0.057-1.345,0.11-2.695,0.159-4.05c0.048-1.354,0.093-2.714,0.133-4.08
	c0.1-3.413,0.172-6.862,0.217-10.358c0.018-1.398,0.031-2.804,0.039-4.218c0.008-1.414,0.012-2.835,0.012-4.267
	c-0.001-2.147-0.012-4.313-0.035-6.503c-0.044-4.378-0.131-8.847-0.262-13.426c-0.043-1.526-0.092-3.065-0.145-4.616
	c-0.027-0.775-0.055-1.554-0.084-2.337c-0.088-2.347-0.186-4.724-0.297-7.132c-0.147-3.212-0.314-6.481-0.503-9.814
	c-0.423-7.499-0.951-15.319-1.59-23.526c-0.059-0.759-0.122-1.519-0.188-2.281c-0.012-0.139-0.024-0.279-0.037-0.418
	c-0.051-0.586-0.104-1.173-0.159-1.761c-0.022-0.238-0.045-0.475-0.068-0.712c-0.052-0.552-0.107-1.104-0.163-1.658
	c-0.019-0.187-0.038-0.372-0.057-0.559c-0.238-2.304-0.505-4.621-0.797-6.949c-0.016-0.125-0.032-0.251-0.048-0.376
	c-0.086-0.683-0.175-1.367-0.266-2.052c-0.014-0.102-0.027-0.203-0.04-0.305c-2.726-20.389-7.379-41.544-12.788-61.735
	C1507.285,701.093,1501.355,756.332,1495.56,811.584z"/>
<path style="fill:#F9C5AB;" d="M1248.006,485.616c-0.533,1.126-1.067,2.252-1.602,3.376c-18.435,38.779-37.748,76.668-57.3,115.018
	c-20.898,40.992-42.347,84.402-40.073,130.358c0.658,13.313,3.672,27.208,12.565,37.137c8.844,9.875,22.482,14.459,35.735,14.764
	c16.961,0.39,33.989-5.796,46.745-16.981c13.321-11.681,21.55-27.949,29.684-43.689c29.91-57.884,62.793-114.232,98.477-168.746
	c8.403-12.837,17.176-26.11,19.513-41.274c3.434-22.28-8.452-45.27-26.761-58.424c-18.793-13.502-49.436-23.218-72.202-16.793
	C1271.714,446.31,1257.375,465.826,1248.006,485.616z"/>
<path style="fill:#F9C5AB;" d="M1004.654,509.276c-15.264,53.053-30.624,109.082-17.46,162.695
	c3.814,15.532,10.532,31.211,23.273,40.879c12.671,9.614,29.782,11.901,45.463,9.237c20.068-3.409,38.714-14.58,51.188-30.666
	c13.027-16.799,19.008-37.84,24.997-58.236c22.025-75.008,47.903-148.884,77.498-221.239c6.969-17.039,14.274-34.675,13.567-53.07
	c-1.039-27.028-20.285-51.397-44.852-62.714c-25.217-11.616-63.53-16.07-88.881-3.308c-23.466,11.814-35.903,38.074-42.424,63.525
	c-0.371,1.448-0.744,2.895-1.116,4.342C1033.039,410.604,1018.935,459.642,1004.654,509.276z"/>
<path style="fill:#F9C5AB;" d="M845.494,393.271c-3.833,2.363-7.695,4.674-11.591,6.925c20.976,3.292,34.462,12.89,46.019,41.396
	c18.594,45.865-8.211,122.695-94.003,158.851c9.217,44.301,29.891,75.086,84.203,75.173c64.989,0.104,80.913-49.084,82.266-100.483
	c2.3-87.287,9.083-174.455,20.314-261.046c2.645-20.391,5.481-41.524-0.549-61.181c-8.861-28.882-36.618-49.68-66.382-54.863
	c-30.551-5.319-73.19,0.843-96.904,21.881c-21.951,19.475-27.859,51.387-27.611,80.732c0.014,1.669,0.027,3.338,0.038,5.007
	c0.198,29.047-0.007,57.951-0.412,86.873C809.304,391.336,829.558,389.075,845.494,393.271z"/>
<path style="fill:#F9C5AB;" d="M679.302,357.557c20.213,7.865,41.291,15.197,63.155,16.124c3.074,0.13,6.116,0.101,9.127-0.058
	c0.328-15.304,0.597-30.609,0.615-45.918c0.042-35.401,6.492-87.768-21.19-115.215c-19.031-18.869-51.192-19.561-74.674-6.648
	c-22.406,12.323-36.585,33.774-46.417,57.101c-5.086,12.067-9.01,24.637-12.307,36.705c-2.637,9.653-5.639,19.321-8.713,28.99
	c9.041,1.138,18.002,2.871,26.79,5.33C637.505,340.071,658.235,349.359,679.302,357.557z"/>
<path style="fill:#FBD4C0;" d="M679.308,382.369c-12.139,11.238-25.541,21.021-39.691,29.847
	c10.053,5.704,20.821,10.292,31.275,14.107c19.623,7.161,40.253,10.518,61.134,9.148c21.903-1.437,43.218-7.554,63.4-15.99
	c13.276-5.549,26.048-12.104,38.477-19.286c3.895-2.251,7.758-4.561,11.591-6.925c-15.936-4.195-36.19-1.935-64.612-0.737
	c-10.976,0.463-23.168,0.767-36.802,0.48C720.719,392.522,699.614,388.062,679.308,382.369z"/>
<path style="fill:#F9C5AB;" d="M651.17,878.417c16.822,13.664,36.247,23.673,55.378,33.857
	c49.719,26.468,98.459,54.776,146.086,84.846c26.442,16.695,54.092,34.467,85.299,36.471c5.718,0.367,11.675,0.141,16.829-2.36
	c5.658-2.746,9.784-8.008,12.367-13.743c11.261-25.002-4.476-53.969-15.711-76.173c-12.61-24.921-28.552-48.137-47.136-68.979
	c-60.502-67.853-164.194-123.322-257.143-97.753c-3.258,0.896-6.446,1.928-9.552,3.103c-6.501,2.46-12.775,5.898-17.493,11.002
	c-9.281,10.043-8.632,24.857-5.429,37.259C620.086,846.931,634.348,864.753,651.17,878.417z"/>
<path style="fill:#EE8468;" d="M1400.329,642.41c13.467-16.126,24.782-34.039,33.623-53.095c2.415-5.205,4.337-10.731,6.148-16.329
	c-10.228,11.229-21.35,24.166-31.4,37.431c-28.843,38.072-62.3,159.21-114.954,201.897c-52.196,42.315-135.094,3.004-172.288-40.39
	c-50.533,16.625-115.588-16.075-147.391-52.095c-8.785-9.949-11.698-30.722-10.657-57.866c-3.558,7.422-7.469,14.175-11.795,20.05
	c-39.272,53.324-124.868,32.611-167.874-1.969c-11.437-9.196-18.529-35.468-22.623-70.825l-0.002-0.008
	c28-8.186,50.926-20.342,69.142-34.707c-10.126,4.996-20.517,9.467-31.067,13.378c-20.904,7.751-42.489,13.314-64.658,15.81
	c-60.135,6.771-117.805-12.427-175.886-24.982c4.737,2.727,24.426,22.053,58.779,35.374c-1.753,19.981-3.403,35.537-11.218,45.221
	c-37.508-3.464-101.802,16.278-110.355,23.117c4.746,0.614,112.833,4.934,160.865,16.201
	c25.472,5.976,328.781,77.757,417.877,353.579c-5.519-44.734-16.681-93.624-39.683-139.948c6.88,2.216,13.865,4.155,20.988,5.721
	c24.648,5.421,49.103,4.976,73.958,1.141c27.436-4.233,54.39-11.643,80.546-20.867c42.296-14.916,79.386-34.031,109.845-67.598
	c27.216-29.992,47.33-65.946,62.734-103.225c6.157-14.9,11.658-30.089,18.667-44.607c3.818-7.907,8.256-15.818,15.127-21.283
	c5.884-4.681,13.152-7.242,20.388-9.285c19.824-5.597,40.575-7.898,61.144-6.782C1467.802,631.49,1431.648,630.362,1400.329,642.41z
	"/>
<path style="fill:#F7B596;" d="M746.64,629.743c-24.867,33.764-73.214,30.35-116.257,14.525c2.684-10.774,4.433-21.078,5.526-30.604
	c11.828,3.251,25.085,5.428,39.933,6.116c0.824,0.038,1.654,0.072,2.489,0.101c4.174,0.145,8.471,0.174,12.895,0.076
	c0.885-0.019,1.774-0.044,2.669-0.074c5.37-0.177,10.923-0.538,16.665-1.097c0.957-0.093,1.92-0.191,2.887-0.296
	c15.784-1.702,30.389-4.497,43.855-8.2l-0.008,0.01C754.661,617.064,751.182,623.576,746.64,629.743z"/>
</svg>
